<svg width="40" height="22" viewBox="0 0 40 22" fill="none" xmlns="http://www.w3.org/2000/svg">
<path d="M10.1761 4.90909H11.7614V13.5767C11.7614 14.4716 11.5504 15.2706 11.1286 15.9737C10.7109 16.6726 10.1207 17.2244 9.35795 17.6293C8.59517 18.0298 7.70028 18.2301 6.6733 18.2301C5.64631 18.2301 4.75142 18.0298 3.98864 17.6293C3.22585 17.2244 2.63352 16.6726 2.21165 15.9737C1.79403 15.2706 1.58523 14.4716 1.58523 13.5767V4.90909H3.17045V13.4489C3.17045 14.0881 3.31108 14.657 3.59233 15.1555C3.87358 15.6499 4.27415 16.0398 4.79403 16.3253C5.31818 16.6065 5.9446 16.7472 6.6733 16.7472C7.40199 16.7472 8.02841 16.6065 8.55256 16.3253C9.07671 16.0398 9.47727 15.6499 9.75426 15.1555C10.0355 14.657 10.1761 14.0881 10.1761 13.4489V4.90909ZM14.927 18V4.90909H16.5123V11.4034H16.6657L22.5463 4.90909H24.6174L19.1202 10.8153L24.6174 18H22.6998L18.1486 11.9148L16.5123 13.7557V18H14.927Z" fill="#727272"/>
<path d="M28 8.5L33 14L38.5 8.5" stroke="#727272" stroke-width="2" stroke-linecap="round"/>
</svg>
